:SAMPLES-PER-SECOND 30
:FULLY-SPECIFIED
:DEGREES
156
root  3.940466633 36.09444325 10.46015522 3.732971191 6.725006104 -4.715026855
lowerback  10.97570038 7.742249966 -3.375999928
upperback  4.406119823 9.776069641 -5.835460186
thorax  -0.9753329754 4.910059929 -5.331250191
lowerneck  4.768260002 -3.627549887 -9.690400124
upperneck  6.024429798 -6.054560184 21.04470062
head  1.848260045 -2.991359949 8.106289864
lclavicle  0 -9.442270133e-015 7.951389973e-016
lhumerus  9.842009544 -48.04190063 75.62619781
lradius  1.202907834e-031 -3.319918189e-031 109.9169998
lwrist  -7.062250077e-031 -1.765562519e-031 9.657699585
lhand  -1.496451383e-031 -27.76390076 20.11240005
lfingers  90 7.125020027 -90
lthumb  89.89689403 5.08795885 91.16245106
rclavicle  0 -9.442270133e-015 7.951389973e-016
rhumerus  58.47240067 -18.94459915 -45.41640091
rradius  3.043408279e-031 1.790673082e-031 30.47159958
rwrist  7.062250077e-031 -3.531125038e-031 3.07407999
rhand  -7.920061211e-032 -33.2840004 9.303460121
rfingers  -90 -7.125020027 -90
rthumb  -92.93752616 -24.25625642 -97.11982154
rfemur  10.14410019 -7.011260033 26.53969955
rtibia  -0 0 45.66609955
rfoot  -0 -28.05680084 -25.27869987
rtoes  5.373923086 19.29304026 -105.8922705
lfemur  -58.86700058 -15.53069973 3.610389948
ltibia  -0 0 59.85359955
lfoot  -0 1.507859945 -14.67179966
ltoes  -4.250644065 -19.5611806 -102.515957
157
root  3.91575558 35.99333275 10.53811096 3.62701416 7.307998657 -5.057983398
lowerback  10.73419952 7.639450073 -3.267910004
upperback  4.421579838 9.675550461 -5.71171999
thorax  -0.8413929939 4.860859871 -5.210390091
lowerneck  4.886260033 -3.640680075 -9.601380348
upperneck  6.153880119 -6.110030174 21.47730064
head  1.881049991 -3.011679888 8.239040375
lclavicle  0 -9.442270133e-015 7.951389973e-016
lhumerus  9.247260094 -47.65439987 75.72949982
lradius  1.269353664e-031 -3.295085024e-031 111.0680008
lwrist  -1.412450015e-030 -1.765562519e-031 9.530949593
lhand  -1.496451383e-031 -27.76390076 20.11240005
lfingers  90 7.125020027 -90
lthumb  89.89689403 5.08795885 91.16245106
rclavicle  0 -9.442270133e-015 7.951389973e-016
rhumerus  56.5564003 -17.40530014 -45.02059937
rradius  2.884438681e-031 2.036874452e-031 35.22819901
rwrist  1.412450015e-030 -3.531125038e-031 -2.159290075
rhand  -7.920061211e-032 -33.2840004 9.303460121
rfingers  -90 -7.125020027 -90
rthumb  -92.93752616 -24.25625642 -97.11982154
rfemur  10.28299999 -6.875689983 26.90049934
rtibia  -0 0 45.75170135
rfoot  -0 -27.71890068 -25.00670052
rtoes  5.373923086 19.29304026 -105.8922705
lfemur  -58.79990005 -15.16139984 3.476109982
ltibia  -0 0 60.16019821
lfoot  -0 0.5371249914 -15.24680042
ltoes  -4.250644065 -19.5611806 -102.515957
158
root  3.903800108 35.91844454 10.6024667 3.421020508 7.604003906 -5.460021973
lowerback  10.35929966 7.511909962 -3.214639902
upperback  4.665669918 9.561360359 -5.440919876
thorax  -0.4312979877 4.803279877 -4.867780209
lowerneck  4.519820213 -3.543730021 -9.810420036
upperneck  6.392399788 -6.011809826 21.58480072
head  2.004780054 -2.936130047 8.307589531
lclavicle  0 -9.442270133e-015 7.951389973e-016
lhumerus  8.993490219 -46.75939941 75.74269867
lradius  1.329808211e-031 -3.271154866e-031 112.1230011
lwrist  0 1.765562519e-031 9.606019974
lhand  -1.496451383e-031 -27.76390076 20.11240005
lfingers  90 7.125020027 -90
lthumb  89.89689403 5.08795885 91.16245106
rclavicle  0 -9.442270133e-015 7.951389973e-016
rhumerus  54.93920135 -15.65579987 -44.11940002
rradius  2.707789489e-031 2.266433348e-031 39.92950058
rwrist  7.062250077e-031 -1.765562519e-031 -3.079289913
rhand  -7.920061211e-032 -33.2840004 9.303460121
rfingers  -90 -7.125020027 -90
rthumb  -92.93752616 -24.25625642 -97.11982154
rfemur  10.41320038 -6.459030151 27.19949913
rtibia  -0 0 45.98649979
rfoot  -0 -27.52219963 -24.46699905
rtoes  5.373923086 19.29304026 -105.8922705
lfemur  -58.65069962 -14.80160046 3.53125
ltibia  -0 0 60.49340057
lfoot  -0 -0.159916997 -15.77509975
ltoes  -4.250644065 -19.5611806 -102.515957
159
root  3.900177648 35.86488859 10.64655574 3.098999023 7.651992798 -5.820007324
lowerback  10.10760021 7.466780186 -3.04479003
upperback  4.833300114 9.550339699 -5.217199802
thorax  -0.1337739974 4.799059868 -4.67347002
lowerneck  4.594079971 -3.442929983 -9.887080193
upperneck  6.52534008 -5.89098978 21.42830086
head  2.007740021 -2.878580093 8.274149895
lclavicle  0 -9.442270133e-015 7.951389973e-016
lhumerus  8.442629814 -45.96709824 75.94779968
lradius  1.389301836e-031 -3.246334001e-031 113.1689987
lwrist  -7.062250077e-031 1.765562519e-031 9.824899673
lhand  -1.496451383e-031 -27.76390076 20.11240005
lfingers  90 7.125020027 -90
lthumb  89.89689403 5.08795885 91.16245106
rclavicle  0 -9.442270133e-015 7.951389973e-016
rhumerus  53.25859833 -13.92010021 -43.00329971
rradius  2.556941706e-031 2.435342512e-031 43.60469818
rwrist  7.062250077e-031 -3.531125038e-031 -1.130869985
rhand  -7.920061211e-032 -33.2840004 9.303460121
rfingers  -90 -7.125020027 -90
rthumb  -92.93752616 -24.25625642 -97.11982154
rfemur  10.59689999 -5.930130005 27.30190086
rtibia  -0 0 46.24639893
rfoot  -0 -27.34119987 -23.89139938
rtoes  5.373923086 19.29304026 -105.8922705
lfemur  -58.4679985 -14.55930042 3.734230042
ltibia  -0 0 60.79430008
lfoot  -0 -0.162398994 -16.33239937
ltoes  -4.250644065 -19.5611806 -102.515957
160
root  3.9112444 35.82466606 10.66826648 2.742004395 7.440002441 -6.135009766
lowerback  10.00479984 7.472650051 -2.73409009
upperback  4.799109936 9.593899727 -5.075379848
thorax  -0.08764570206 4.82460022 -4.683400154
lowerneck  5.273009777 -3.28102994 -9.783390045
upperneck  6.60668993 -5.686830044 21.10040092
head  1.868620038 -2.811969995 8.166640282
lclavicle  0 -9.442270133e-015 7.951389973e-016
lhumerus  7.351910114 -45.28639984 76.43869781
lradius  1.448220086e-031 -3.220481737e-031 114.2129974
lwrist  -7.062250077e-031 -1.765562519e-031 10.12460041
lhand  -1.496451383e-031 -27.76390076 20.11240005
lfingers  90 7.125020027 -90
lthumb  89.89689403 5.08795885 91.16245106
rclavicle  0 -9.442270133e-015 7.951389973e-016
rhumerus  51.67549896 -11.97999954 -41.76259995
rradius  2.448017819e-031 2.54480899e-031 46.11059952
rwrist  3.531125038e-031 -3.531125038e-031 0.1515000015
rhand  -7.920061211e-032 -33.2840004 9.303460121
rfingers  -90 -7.125020027 -90
rthumb  -92.93752616 -24.25625642 -97.11982154
rfemur  10.76469994 -5.308730125 27.18759918
rtibia  -0 0 46.47800064
rfoot  -0 -26.9720993 -23.4715004
rtoes  5.373923086 19.29304026 -105.8922705
lfemur  -58.19630051 -14.35140038 3.98687005
ltibia  -0 0 61.01399994
lfoot  -0 0.05089220032 -16.7031002
ltoes  -4.250644065 -19.5611806 -102.515957
